<svg xmlns="http://www.w3.org/2000/svg" width="24" height="21" viewBox="0 0 24 21">
  <metadata><?xpacket begin="﻿" id="W5M0MpCehiHzreSzNTczkc9d"?>
<x:xmpmeta xmlns:x="adobe:ns:meta/" x:xmptk="Adobe XMP Core 5.6-c142 79.160924, 2017/07/13-01:06:39        ">
   <rdf:RDF xmlns:rdf="http://www.w3.org/1999/02/22-rdf-syntax-ns#">
      <rdf:Description rdf:about=""/>
   </rdf:RDF>
</x:xmpmeta>
                                                                                                    
                                                                                                    
                                                                                                    
                                                                                                    
                                                                                                    
                                                                                                    
                                                                                                    
                                                                                                    
                                                                                                    
                                                                                                    
                                                                                                    
                                                                                                    
                                                                                                    
                                                                                                    
                                                                                                    
                                                                                                    
                                                                                                    
                                                                                                    
                                                                                                    
                                                                                                    
                           
<?xpacket end="w"?></metadata>
<defs>
    <style>
      .cls-1 {
        fill: #ccc;
        fill-rule: evenodd;
      }
    </style>
  </defs>
  <path id="icon_13" class="cls-1" d="M1616,319v14h-7v1a2,2,0,0,1-2,2h-6a2,2,0,0,1-2-2v-1h-7V318a3,3,0,0,1,3-3h18a3,3,0,0,1,3,3h0v1h0Zm-3-3h-18a2,2,0,0,0-2,2h22A2,2,0,0,0,1613,316Zm2,3h-22v13h6v-2a2,2,0,0,1,2-2h2v-4l-3,3v-2l4-4,4,4v2l-3-3v4h2a2,2,0,0,1,2,2v2h6V319Z" transform="translate(-1592 -315)"/>
</svg>
