<svg xmlns="http://www.w3.org/2000/svg" width="27" height="18" viewBox="0 0 27 18">
  <defs>
    <style>
      .cls-1 {
        fill: #ccc;
        fill-rule: evenodd;
      }
    </style>
  </defs>
  <path id="icon_7" class="cls-1" d="M1611,394v-3h-2.5l-4,4-4-4h-2.55a3.5,3.5,0,1,1-1.36-3.3l5.12-5.118a3.453,3.453,0,0,1-.71-2.087,3.5,3.5,0,0,1,7,0,3.453,3.453,0,0,1-.71,2.087l4.42,4.413H1618v7h-7Zm-16.5-6a2.5,2.5,0,1,0,2.5,2.5A2.5,2.5,0,0,0,1594.5,388Zm9.5-4.042a3.53,3.53,0,0,1-1.59-.663l-5.12,5.118a3.455,3.455,0,0,1,.67,1.587h2.54l3.5-3.5v-2.542Zm7,3.749-4.41-4.412a3.53,3.53,0,0,1-1.59.663V386.5l3.5,3.5h2.5v-2.293Zm6,0.293h-5v5h5v-5Z" transform="translate(-1591 -377)"/>
</svg>
