<svg xmlns="http://www.w3.org/2000/svg" width="24" height="24" viewBox="0 0 24 24">
  <metadata><?xpacket begin="﻿" id="W5M0MpCehiHzreSzNTczkc9d"?>
<x:xmpmeta xmlns:x="adobe:ns:meta/" x:xmptk="Adobe XMP Core 5.6-c142 79.160924, 2017/07/13-01:06:39        ">
   <rdf:RDF xmlns:rdf="http://www.w3.org/1999/02/22-rdf-syntax-ns#">
      <rdf:Description rdf:about=""/>
   </rdf:RDF>
</x:xmpmeta>
                                                                                                    
                                                                                                    
                                                                                                    
                                                                                                    
                                                                                                    
                                                                                                    
                                                                                                    
                                                                                                    
                                                                                                    
                                                                                                    
                                                                                                    
                                                                                                    
                                                                                                    
                                                                                                    
                                                                                                    
                                                                                                    
                                                                                                    
                                                                                                    
                                                                                                    
                                                                                                    
                           
<?xpacket end="w"?></metadata>
<defs>
    <style>
      .cls-1 {
        fill: #fdd914;
        fill-rule: evenodd;
      }
    </style>
  </defs>
  <path id="icon_1" class="cls-1" d="M1316.61,237.261l-6.01,4.576,0.01,0.044-5.52,4.228-0.09-.075-6,4.774a1.291,1.291,0,0,1-.66.177,1.328,1.328,0,0,1-1.31-1.571l2.37-7.577-6.01-4.573a1.334,1.334,0,0,1,.84-2.255l0.41-.009h20.72l0.41,0.009A1.331,1.331,0,0,1,1316.61,237.261ZM1301.77,234l2.01-6.184a1.328,1.328,0,0,1,1.22-.8h0a1.33,1.33,0,0,1,1.22.805l2.01,6.18h-6.46Zm11.2,15.419a1.326,1.326,0,0,1-1.31,1.566,1.291,1.291,0,0,1-.66-0.177l-5.07-4.036,5.01-3.841Z" transform="translate(-1293 -227)"/>
</svg>
